# xmcd CD database file
#
# Track frame offsets:
#	150
#	20867
#	39445
#
# Disc length: 783 seconds
#
# Revision: 7
# Processed by: cddbd v1.5.1PL0 Copyright (c) Steve Scherf et al.
# Submitted via: CDex 1.51
#
DISCID=1f030d03
DTITLE=中森明菜 - MY BEST THANKS
DYEAR=1985
DGENRE=JPop
TTITLE0=ありふれた風景
TTITLE1=予感
TTITLE2=Don't Tell Me This Is Love
EXTD=YEAR: 1985
EXTT0=
EXTT1=
EXTT2=
PLAYORDER=
